# xmcd
#
# Track frame offsets:
#	150
#	13876
#	28919
#	47841
#	59730
#	75106
#	93662
#	110039
#	127410
#	154309
#	173071
#	186729
#	200330
#	218795
#	229015
#	243142
#	259363
#	277299
#	296893
#	310094
#
# Disc length: 4332 seconds
#
# Revision: 0
# Processed by: cddbd v1.5.2PL0 Copyright (c) Steve Scherf et al.
# Submitted via: dBpowerAMP V4.0
#
DISCID=3d10ea14
DTITLE=Farmer Dan - Farming greatest hits
DYEAR=1900
DGENRE=
TTITLE0=Farming Ain't The Way It Used To Be
TTITLE1=The Auctioneer
TTITLE2=Three
TTITLE3=Way Back The (I Didn't Know What Love Was)
TTITLE4=Carol On My Mind
TTITLE5=An Irish Harvest Day
TTITLE6=Too Old To Die Young
TTITLE7=Spuds, Spuds, Spuds
TTITLE8=Mary's Reply To (The Mountains Of Mourne)
TTITLE9=Gospel Medley: I'll Fly Away - I Saw The Light - Will The Circle Be Unbroken
TTITLE10=Me Little Suzuki Jeep
TTITLE11=The Combine Harvester
TTITLE12=My Own Sligo Home
TTITLE13=Me Granny Was A Plucker
TTITLE14=Full Time Full
TTITLE15=I Wish It Was That Easy Going Home
TTITLE16=God Must Be A Cowboy At Heart
TTITLE17=Mr Jones
TTITLE18=Gentle Mother
TTITLE19=Showband Medley: Don't Lose Your Hucklebuck Shoes - From The Candy Store On The Corner - The Huckleb
EXTD=
EXTT0=
EXTT1=
EXTT2=
EXTT3=
EXTT4=
EXTT5=
EXTT6=
EXTT7=
EXTT8=
EXTT9=
EXTT10=
EXTT11=
EXTT12=
EXTT13=
EXTT14=
EXTT15=
EXTT16=
EXTT17=
EXTT18=
EXTT19=
PLAYORDER=
